<?xml version="1.0" standalone="no"?>
<!DOCTYPE svg PUBLIC "-//W3C//DTD SVG 20010904//EN"
 "http://www.w3.org/TR/2001/REC-SVG-20010904/DTD/svg10.dtd">
<svg version="1.0" xmlns="http://www.w3.org/2000/svg"
 width="100.000000pt" height="100.000000pt" viewBox="0 0 100.000000 100.000000"
 preserveAspectRatio="xMidYMid meet">

<g transform="translate(0.000000,100.000000) scale(0.100000,-0.100000)"
fill="#000000" stroke="none">
<path d="M353 922 c-66 -36 -96 -107 -74 -173 6 -19 39 -63 72 -99 56 -60 109
-146 109 -178 0 -8 -13 -27 -29 -43 -34 -34 -74 -38 -128 -12 -44 21 -69 60
-77 124 -5 40 -10 49 -26 49 -54 0 -65 -110 -17 -173 37 -49 120 -90 184 -91
29 -1 53 -2 53 -4 0 -2 -20 -35 -46 -74 -44 -68 -51 -97 -27 -105 19 -7 79 54
124 125 24 37 66 119 94 182 50 112 53 115 86 118 46 3 101 -26 112 -61 17
-52 -46 -110 -133 -123 -88 -13 -104 -36 -37 -55 60 -17 107 -64 107 -106 0
-73 -70 -97 -188 -65 -91 25 -109 17 -61 -28 35 -31 139 -70 188 -70 43 1 109
36 131 72 34 53 23 113 -28 159 l-41 35 35 13 c49 18 100 70 112 115 25 88
-54 169 -165 171 -48 0 -53 2 -53 23 0 37 -93 59 -119 28 -9 -11 -6 -18 14
-33 22 -15 25 -24 20 -46 -9 -35 -19 -34 -44 6 -11 17 -43 55 -71 82 -53 51
-80 92 -80 120 0 27 38 55 74 55 53 0 82 -15 136 -71 27 -28 54 -48 60 -44 5
3 10 22 10 41 0 26 -9 45 -41 78 -64 70 -167 95 -236 58z"/>
</g>
</svg>
