<svg xmlns="http://www.w3.org/2000/svg" xmlns:xlink="http://www.w3.org/1999/xlink" width="500" zoomAndPan="magnify" viewBox="0 0 375 374.999991" height="500" preserveAspectRatio="xMidYMid meet" version="1.0"><defs><g/></defs><rect x="-37.5" width="450" fill="#ffffff" y="-37.499999" height="449.999989" fill-opacity="1"/><rect x="-37.5" width="450" fill="#ffffff" y="-37.499999" height="449.999989" fill-opacity="1"/><g fill="#000000" fill-opacity="1"><g transform="translate(57.953255, 203.250044)"><g><path d="M 3.410156 0 L 10.226562 0 L 10.226562 -6.820312 L 30.683594 -6.820312 L 30.683594 -13.636719 L 10.226562 -13.636719 L 10.226562 -27.273438 L 30.683594 -27.273438 L 30.683594 -34.09375 L 3.410156 -34.09375 Z M 30.683594 -13.636719 L 37.503906 -13.636719 L 37.503906 -27.273438 L 30.683594 -27.273438 Z M 30.683594 -13.636719 "/></g></g></g><g fill="#000000" fill-opacity="1"><g transform="translate(98.863935, 203.250044)"><g><path d="M 3.410156 0 L 23.867188 0 L 23.867188 -6.820312 L 17.046875 -6.820312 L 17.046875 -27.273438 L 23.867188 -27.273438 L 23.867188 -34.09375 L 3.410156 -34.09375 L 3.410156 -27.273438 L 10.226562 -27.273438 L 10.226562 -6.820312 L 3.410156 -6.820312 Z M 3.410156 0 "/></g></g></g><g fill="#000000" fill-opacity="1"><g transform="translate(126.137722, 203.250044)"><g><path d="M 10.226562 -13.636719 L 3.410156 -13.636719 L 3.410156 0 L 10.226562 0 Z M 3.410156 -20.457031 L 10.226562 -20.457031 L 10.226562 -34.09375 L 3.410156 -34.09375 Z M 10.226562 -13.636719 L 30.683594 -13.636719 L 30.683594 -20.457031 L 10.226562 -20.457031 Z M 30.683594 0 L 37.503906 0 L 37.503906 -13.636719 L 30.683594 -13.636719 Z M 30.683594 -20.457031 L 37.503906 -20.457031 L 37.503906 -34.09375 L 30.683594 -34.09375 Z M 30.683594 -20.457031 "/></g></g></g><g fill="#000000" fill-opacity="1"><g transform="translate(167.048402, 203.250044)"><g><path d="M 3.410156 0 L 37.503906 0 L 37.503906 -6.820312 L 10.226562 -6.820312 L 10.226562 -13.636719 L 30.683594 -13.636719 L 30.683594 -20.457031 L 10.226562 -20.457031 L 10.226562 -27.273438 L 37.503906 -27.273438 L 37.503906 -34.09375 L 3.410156 -34.09375 Z M 3.410156 0 "/></g></g></g><g fill="#000000" fill-opacity="1"><g transform="translate(207.959082, 203.250044)"><g><path d="M 3.410156 6.820312 L 10.226562 6.820312 L 10.226562 -40.914062 L 3.410156 -40.914062 Z M 3.410156 6.820312 "/></g></g></g><g fill="#000000" fill-opacity="1"><g transform="translate(221.595975, 203.250044)"><g><path d="M 30.683594 0 L 37.503906 0 L 37.503906 -34.09375 L 30.683594 -34.09375 L 30.683594 -27.273438 L 23.867188 -27.273438 L 23.867188 -20.457031 L 30.683594 -20.457031 Z M 3.410156 0 L 10.226562 0 L 10.226562 -20.457031 L 17.046875 -20.457031 L 17.046875 -27.273438 L 10.226562 -27.273438 L 10.226562 -34.09375 L 3.410156 -34.09375 Z M 17.046875 -13.636719 L 23.867188 -13.636719 L 23.867188 -20.457031 L 17.046875 -20.457031 Z M 17.046875 -13.636719 "/></g></g></g><g fill="#000000" fill-opacity="1"><g transform="translate(262.506655, 203.250044)"><g><path d="M 3.410156 0 L 37.503906 0 L 37.503906 -6.820312 L 10.226562 -6.820312 L 10.226562 -13.636719 L 30.683594 -13.636719 L 30.683594 -20.457031 L 10.226562 -20.457031 L 10.226562 -27.273438 L 37.503906 -27.273438 L 37.503906 -34.09375 L 3.410156 -34.09375 Z M 3.410156 0 "/></g></g></g><g fill="#000000" fill-opacity="1"><g transform="translate(303.417335, 203.250044)"><g><path d="M 3.410156 -13.636719 L 10.226562 -13.636719 L 10.226562 -20.457031 L 3.410156 -20.457031 Z M 3.410156 0 L 10.226562 0 L 10.226562 -6.820312 L 3.410156 -6.820312 Z M 3.410156 0 "/></g></g></g></svg>