<svg width="500" height="111" xmlns="http://www.w3.org/2000/svg" xmlns:xlink="http://www.w3.org/1999/xlink" xml:space="preserve" overflow="hidden"><defs><clipPath id="clip0"><rect x="390" y="307" width="500" height="111"/></clipPath></defs><g clip-path="url(#clip0)" transform="translate(-390 -307)"><path d="M-50-50 550-50 550 550-50 550Z" fill="#FFFFFF" transform="matrix(1 0 0 1.00334 390 109.14)"/><path d="M-50-50 550-50 550 550-50 550Z" fill="#FFFFFF" transform="matrix(1 0 0 1.00334 390 109.14)"/><path d="M4.54688 0 13.6354 0 13.6354-9.09375 40.9115-9.09375 40.9115-18.1823 13.6354-18.1823 13.6354-36.3646 40.9115-36.3646 40.9115-45.4583 4.54688-45.4583ZM40.9115-18.1823 50.0052-18.1823 50.0052-36.3646 40.9115-36.3646Z" transform="matrix(1 0 0 1.00334 467.271 381.047)"/><path d="M4.54688 0 31.8229 0 31.8229-9.09375 22.7292-9.09375 22.7292-36.3646 31.8229-36.3646 31.8229-45.4583 4.54688-45.4583 4.54688-36.3646 13.6354-36.3646 13.6354-9.09375 4.54688-9.09375Z" transform="matrix(1 0 0 1.00334 521.819 381.047)"/><path d="M13.6354-18.1823 4.54688-18.1823 4.54688 0 13.6354 0ZM4.54688-27.276 13.6354-27.276 13.6354-45.4583 4.54688-45.4583ZM13.6354-18.1823 40.9115-18.1823 40.9115-27.276 13.6354-27.276ZM40.9115 0 50.0052 0 50.0052-18.1823 40.9115-18.1823ZM40.9115-27.276 50.0052-27.276 50.0052-45.4583 40.9115-45.4583Z" transform="matrix(1 0 0 1.00334 558.184 381.047)"/><path d="M4.54688 0 50.0052 0 50.0052-9.09375 13.6354-9.09375 13.6354-18.1823 40.9115-18.1823 40.9115-27.276 13.6354-27.276 13.6354-36.3646 50.0052-36.3646 50.0052-45.4583 4.54688-45.4583Z" transform="matrix(1 0 0 1.00334 612.731 381.047)"/><path d="M4.54688 9.09375 13.6354 9.09375 13.6354-54.5521 4.54688-54.5521Z" transform="matrix(1 0 0 1.00334 667.279 381.047)"/><path d="M40.9115 0 50.0052 0 50.0052-45.4583 40.9115-45.4583 40.9115-36.3646 31.8229-36.3646 31.8229-27.276 40.9115-27.276ZM4.54688 0 13.6354 0 13.6354-27.276 22.7292-27.276 22.7292-36.3646 13.6354-36.3646 13.6354-45.4583 4.54688-45.4583ZM22.7292-18.1823 31.8229-18.1823 31.8229-27.276 22.7292-27.276Z" transform="matrix(1 0 0 1.00334 685.461 381.047)"/><path d="M4.54688 0 50.0052 0 50.0052-9.09375 13.6354-9.09375 13.6354-18.1823 40.9115-18.1823 40.9115-27.276 13.6354-27.276 13.6354-36.3646 50.0052-36.3646 50.0052-45.4583 4.54688-45.4583Z" transform="matrix(1 0 0 1.00334 740.009 381.047)"/><path d="M4.54688-18.1823 13.6354-18.1823 13.6354-27.276 4.54688-27.276ZM4.54688 0 13.6354 0 13.6354-9.09375 4.54688-9.09375Z" transform="matrix(1 0 0 1.00334 794.556 381.047)"/></g></svg>