<svg xmlns="http://www.w3.org/2000/svg" xmlns:xlink="http://www.w3.org/1999/xlink" width="500" zoomAndPan="magnify" viewBox="0 0 375 374.999991" height="500" preserveAspectRatio="xMidYMid meet" version="1.0"><defs><g/></defs><g fill="#000000" fill-opacity="1"><g transform="translate(102.801118, 233.464104)"><g><path d="M -1.925781 -4.863281 C -2.828125 -6.921875 -4.898438 -8.125 -6.773438 -7.308594 C -8.542969 -6.53125 -8.644531 -4.738281 -8.59375 -2.371094 C -8.554688 -0.539062 -8.472656 1.535156 -10.125 2.257812 C -11.695312 2.945312 -13.023438 2.019531 -13.628906 0.636719 C -14.609375 -1.609375 -13.84375 -3.027344 -12.925781 -4.09375 L -13.015625 -4.214844 L -14.691406 -3.402344 C -14.777344 -2.863281 -14.886719 -1.546875 -14.074219 0.308594 C -13.070312 2.601562 -11.1875 3.644531 -9.332031 2.835938 C -7.726562 2.132812 -7.359375 0.726562 -7.460938 -1.941406 C -7.527344 -3.703125 -7.582031 -5.988281 -5.863281 -6.742188 C -4.511719 -7.332031 -2.953125 -6.527344 -2.28125 -4.992188 C -1.199219 -2.511719 -2.242188 -0.808594 -3.609375 0.472656 L -3.519531 0.636719 L -1.414062 -0.425781 C -1.214844 -1.355469 -1.136719 -3.058594 -1.925781 -4.863281 Z M -1.925781 -4.863281 "/></g></g></g><g fill="#000000" fill-opacity="1"><g transform="translate(97.479653, 221.080621)"><g><path d="M -1.625 -7.242188 C -2.378906 -10.242188 -5.097656 -13.054688 -9.578125 -11.929688 C -13.953125 -10.832031 -15.207031 -7.046875 -14.449219 -4.027344 C -13.5 -0.242188 -10.242188 1.621094 -6.457031 0.671875 C -2.082031 -0.425781 -0.863281 -4.207031 -1.625 -7.242188 Z M -7.664062 -0.0507812 C -10.609375 0.6875 -13.222656 -0.574219 -13.980469 -3.59375 C -14.816406 -6.933594 -12.054688 -10.300781 -8.414062 -11.214844 C -5.375 -11.976562 -2.835938 -10.621094 -2.082031 -7.621094 C -1.238281 -4.265625 -4.054688 -0.957031 -7.664062 -0.0507812 Z M -7.664062 -0.0507812 "/></g></g></g><g fill="#000000" fill-opacity="1"><g transform="translate(93.526281, 203.327732)"><g><path d="M -0.0820312 -1.007812 L -0.75 -9.324219 L -2.574219 -9.289062 L -2.597656 -9.121094 C -1.378906 -8.664062 -0.886719 -8.074219 -0.757812 -6.421875 L -0.519531 -3.488281 C -0.480469 -3.007812 -0.71875 -2.730469 -1.195312 -2.691406 L -10.738281 -1.925781 C -12.425781 -1.792969 -12.757812 -1.988281 -12.925781 -2.488281 L -13.128906 -2.472656 L -12.929688 0.0234375 L -12.726562 0.0078125 C -12.640625 -0.519531 -12.34375 -0.761719 -10.65625 -0.898438 L -2.472656 -1.554688 C -0.78125 -1.691406 -0.453125 -1.496094 -0.28125 -0.992188 Z M -0.0820312 -1.007812 "/></g></g></g><g fill="#000000" fill-opacity="1"><g transform="translate(92.657826, 190.01271)"><g><path d="M -10.601562 -2.019531 L 0.566406 -5.554688 L 0.589844 -5.882812 L -9.980469 -10.800781 C -11.519531 -11.511719 -11.765625 -11.972656 -11.863281 -12.441406 L -12.0625 -12.457031 L -12.203125 -10.453125 L -12 -10.4375 C -11.828125 -11.074219 -11.144531 -11.046875 -10 -10.523438 L -0.664062 -6.191406 L -10.53125 -3.085938 C -12.132812 -2.585938 -12.410156 -2.585938 -12.503906 -3.109375 L -12.703125 -3.125 L -12.863281 -0.808594 L -12.660156 -0.796875 C -12.507812 -1.152344 -12.207031 -1.519531 -10.601562 -2.019531 Z M -10.601562 -2.019531 "/></g></g></g><g fill="#000000" fill-opacity="1"><g transform="translate(93.964538, 175.184774)"><g><path d="M 0.222656 -0.988281 L 2.160156 -9.59375 L 0.0585938 -10.234375 L -0.015625 -10.082031 C 1.363281 -9.148438 1.578125 -8.101562 1.214844 -6.484375 L 0.539062 -3.484375 C 0.433594 -3.015625 0.125 -2.820312 -0.339844 -2.925781 L -5.964844 -4.191406 L -5.300781 -7.136719 C -4.878906 -9.007812 -4.378906 -9.308594 -3.679688 -9.304688 L -3.636719 -9.5 L -6.023438 -10.039062 L -6.070312 -9.839844 C -5.4375 -9.546875 -5.113281 -9.058594 -5.535156 -7.191406 L -6.195312 -4.246094 L -11.730469 -5.492188 L -11 -8.722656 C -10.636719 -10.339844 -9.875 -11.207031 -8.351562 -11.449219 L -8.347656 -11.617188 L -10.535156 -11.882812 L -12.351562 -3.820312 L -12.152344 -3.773438 C -11.914062 -4.25 -11.5625 -4.394531 -9.910156 -4.023438 L -1.898438 -2.21875 C -0.246094 -1.847656 0.0117188 -1.5625 0.0234375 -1.03125 Z M 0.222656 -0.988281 "/></g></g></g><g fill="#000000" fill-opacity="1"><g transform="translate(97.50231, 161.301145)"><g/></g></g><g fill="#000000" fill-opacity="1"><g transform="translate(100.046664, 154.077944)"><g><path d="M 0.445312 -0.910156 L 1.976562 -4.054688 C 3.90625 -8.011719 2.582031 -10.253906 0.796875 -11.082031 C -0.800781 -11.84375 -2.699219 -11.558594 -4.183594 -8.984375 C -3.699219 -10.816406 -4.359375 -12.0625 -5.484375 -12.609375 C -6.828125 -13.265625 -8.210938 -12.566406 -9.363281 -10.199219 L -11.140625 -6.558594 L -10.957031 -6.472656 C -10.617188 -6.878906 -10.238281 -6.9375 -8.714844 -6.195312 L -1.335938 -2.597656 C 0.1875 -1.855469 0.371094 -1.519531 0.261719 -1 Z M -0.453125 -3.3125 L -5.484375 -5.769531 L -4.394531 -8 C -3.175781 -10.5 -1.308594 -10.839844 0.511719 -9.953125 C 2.429688 -9.015625 3.304688 -7.363281 1.816406 -4.316406 L 1.40625 -3.472656 C 1.058594 -2.761719 0.738281 -2.734375 -0.453125 -3.3125 Z M -5.699219 -5.871094 L -10.152344 -8.042969 L -9.230469 -9.929688 C -8.382812 -11.667969 -7.078125 -12.117188 -5.769531 -11.480469 C -4.511719 -10.867188 -3.882812 -9.597656 -4.90625 -7.496094 Z M -5.699219 -5.871094 "/></g></g></g><g fill="#000000" fill-opacity="1"><g transform="translate(106.548742, 141.319094)"><g><path d="M 6.03125 -8.476562 C 6.261719 -8.8125 6.410156 -9.15625 6.4375 -9.292969 L 6.285156 -9.398438 C 6.238281 -9.296875 6.203125 -9.210938 6.136719 -9.121094 C 5.804688 -8.636719 4.832031 -8.65625 2.789062 -9.132812 C 0.632812 -9.640625 -0.703125 -10.207031 -2.394531 -8.378906 C -1.25 -10.453125 -1.589844 -12.320312 -3.042969 -13.328125 C -4.507812 -14.34375 -6.140625 -13.773438 -8.089844 -10.957031 L -10.019531 -8.171875 L -9.851562 -8.054688 C -9.453125 -8.40625 -9.070312 -8.410156 -7.675781 -7.445312 L -0.925781 -2.769531 C 0.464844 -1.804688 0.597656 -1.445312 0.410156 -0.949219 L 0.578125 -0.832031 L 2.003906 -2.890625 L 1.835938 -3.007812 C 1.4375 -2.65625 1.054688 -2.652344 -0.339844 -3.617188 L -3.925781 -6.101562 L -3.203125 -7.144531 C -1.578125 -9.492188 -0.0429688 -8.699219 2.496094 -8.195312 C 4.265625 -7.839844 5.273438 -7.386719 6.03125 -8.476562 Z M -4.136719 -6.25 L -8.785156 -9.46875 C -8.609375 -9.75 -8.457031 -10.003906 -8.289062 -10.246094 C -6.464844 -12.878906 -4.84375 -13.1875 -3.359375 -12.160156 C -1.9375 -11.175781 -1.808594 -9.609375 -3.027344 -7.851562 Z M -4.136719 -6.25 "/></g></g></g><g fill="#000000" fill-opacity="1"><g transform="translate(114.914832, 129.471765)"><g><path d="M 5.335938 -5.15625 C 7.507812 -7.363281 8.492188 -11.144531 5.199219 -14.386719 C 1.988281 -17.554688 -1.898438 -16.652344 -4.082031 -14.433594 C -6.820312 -11.652344 -6.714844 -7.902344 -3.933594 -5.164062 C -0.71875 -2 3.140625 -2.929688 5.335938 -5.15625 Z M -3.945312 -6.570312 C -6.109375 -8.703125 -6.390625 -11.589844 -4.207031 -13.808594 C -1.792969 -16.261719 2.523438 -15.65625 5.199219 -13.019531 C 7.429688 -10.824219 7.59375 -7.949219 5.425781 -5.746094 C 2.996094 -3.277344 -1.292969 -3.960938 -3.945312 -6.570312 Z M -3.945312 -6.570312 "/></g></g></g><g fill="#000000" fill-opacity="1"><g transform="translate(128.001116, 116.852278)"><g><path d="M 3.148438 -2.273438 L 5.195312 -3.75 L 5.074219 -3.914062 C 4.582031 -3.71875 4.21875 -3.84375 3.226562 -5.214844 L -2.808594 -13.574219 L -1.808594 -14.296875 C -0.464844 -15.265625 0.300781 -15.277344 1.4375 -14.644531 L 1.550781 -14.769531 L 0.394531 -16.183594 L -7.171875 -10.71875 L -6.195312 -9.175781 L -6.039062 -9.242188 C -6.28125 -10.519531 -6.035156 -11.246094 -4.691406 -12.214844 L -3.660156 -12.960938 L 2.378906 -4.601562 C 3.367188 -3.226562 3.375 -2.84375 3.03125 -2.4375 Z M 3.148438 -2.273438 "/></g></g></g><g fill="#000000" fill-opacity="1"><g transform="translate(139.203289, 108.955431)"><g><path d="M 0.90625 -0.453125 L 3.140625 -1.578125 L 3.050781 -1.761719 C 2.53125 -1.644531 2.195312 -1.824219 1.433594 -3.339844 L -0.527344 -7.238281 L 6.316406 -10.679688 L 8.277344 -6.78125 C 9.039062 -5.265625 8.980469 -4.886719 8.578125 -4.539062 L 8.667969 -4.359375 L 10.90625 -5.484375 L 10.816406 -5.664062 C 10.296875 -5.550781 9.957031 -5.730469 9.199219 -7.242188 L 5.507812 -14.578125 C 4.746094 -16.09375 4.804688 -16.472656 5.207031 -16.816406 L 5.117188 -17 L 2.878906 -15.875 L 2.96875 -15.691406 C 3.488281 -15.808594 3.824219 -15.628906 4.585938 -14.117188 L 6.199219 -10.910156 L -0.644531 -7.46875 L -2.257812 -10.675781 C -3.015625 -12.1875 -2.960938 -12.566406 -2.558594 -12.914062 L -2.648438 -13.09375 L -4.886719 -11.96875 L -4.796875 -11.789062 C -4.277344 -11.90625 -3.9375 -11.726562 -3.175781 -10.210938 L 0.511719 -2.875 C 1.273438 -1.363281 1.214844 -0.984375 0.8125 -0.636719 Z M 0.90625 -0.453125 "/></g></g></g><g fill="#000000" fill-opacity="1"><g transform="translate(154.206193, 101.830132)"><g><path d="M 0.964844 -0.304688 L 9.382812 -2.945312 L 8.882812 -5.085938 L 8.714844 -5.070312 C 8.597656 -3.414062 7.796875 -2.699219 6.21875 -2.203125 L 3.285156 -1.28125 C 2.828125 -1.136719 2.503906 -1.308594 2.359375 -1.765625 L 0.632812 -7.261719 L 3.515625 -8.167969 C 5.34375 -8.742188 5.855469 -8.457031 6.199219 -7.851562 L 6.394531 -7.914062 L 5.660156 -10.25 L 5.464844 -10.1875 C 5.53125 -9.492188 5.269531 -8.96875 3.445312 -8.394531 L 0.5625 -7.492188 L -1.136719 -12.902344 L 2.027344 -13.894531 C 3.605469 -14.390625 4.738281 -14.167969 5.714844 -12.96875 L 5.859375 -13.050781 L 4.992188 -15.078125 L -2.894531 -12.601562 L -2.832031 -12.40625 C -2.304688 -12.4375 -2 -12.207031 -1.492188 -10.589844 L 0.96875 -2.753906 C 1.476562 -1.140625 1.359375 -0.773438 0.90625 -0.496094 Z M 0.964844 -0.304688 "/></g></g></g><g fill="#000000" fill-opacity="1"><g transform="translate(167.802095, 97.817166)"><g><path d="M 10.300781 -1.457031 C 10.703125 -1.519531 11.054688 -1.648438 11.171875 -1.722656 L 11.144531 -1.902344 C 11.039062 -1.867188 10.949219 -1.835938 10.839844 -1.820312 C 10.257812 -1.730469 9.609375 -2.449219 8.546875 -4.261719 C 7.433594 -6.175781 6.925781 -7.53125 4.433594 -7.5 C 6.726562 -8.097656 7.851562 -9.628906 7.582031 -11.375 C 7.308594 -13.140625 5.773438 -13.929688 2.386719 -13.410156 L -0.960938 -12.894531 L -0.929688 -12.691406 C -0.402344 -12.644531 -0.136719 -12.367188 0.121094 -10.695312 L 1.371094 -2.578125 C 1.628906 -0.902344 1.460938 -0.558594 0.96875 -0.355469 L 1 -0.152344 L 3.476562 -0.535156 L 3.445312 -0.734375 C 2.914062 -0.785156 2.648438 -1.058594 2.390625 -2.734375 L 1.726562 -7.046875 L 2.984375 -7.242188 C 5.804688 -7.675781 6.28125 -6.015625 7.664062 -3.824219 C 8.625 -2.296875 8.992188 -1.253906 10.300781 -1.457031 Z M 1.6875 -7.300781 L 0.828125 -12.890625 C 1.152344 -12.957031 1.441406 -13.019531 1.730469 -13.066406 C 4.898438 -13.554688 6.238281 -12.585938 6.515625 -10.800781 C 6.777344 -9.09375 5.726562 -7.925781 3.617188 -7.597656 Z M 1.6875 -7.300781 "/></g></g></g><g fill="#000000" fill-opacity="1"><g transform="translate(182.267564, 95.889237)"><g><path d="M 5.230469 0.160156 C 7.476562 0.148438 9.402344 -1.277344 9.394531 -3.320312 C 9.382812 -5.253906 7.777344 -6.058594 5.582031 -6.949219 C 3.886719 -7.640625 1.949219 -8.386719 1.941406 -10.191406 C 1.933594 -11.902344 3.308594 -12.757812 4.820312 -12.765625 C 7.269531 -12.777344 8.269531 -11.511719 8.882812 -10.242188 L 9.027344 -10.28125 L 8.945312 -12.140625 C 8.484375 -12.433594 7.320312 -13.050781 5.296875 -13.042969 C 2.792969 -13.03125 1.085938 -11.714844 1.097656 -9.691406 C 1.105469 -7.941406 2.25 -7.042969 4.738281 -6.082031 C 6.382812 -5.445312 8.503906 -4.589844 8.511719 -2.710938 C 8.519531 -1.238281 7.160156 -0.125 5.488281 -0.117188 C 2.78125 -0.105469 1.628906 -1.738281 0.996094 -3.503906 L 0.8125 -3.484375 L 0.953125 -1.128906 C 1.726562 -0.578125 3.261719 0.167969 5.230469 0.160156 Z M 5.230469 0.160156 "/></g></g></g><g fill="#000000" fill-opacity="1"><g transform="translate(151.608327, 201.875274)"><g><path d="M 22.972656 0.804688 C 32.484375 0.804688 41.835938 -5.320312 41.835938 -15.398438 C 41.835938 -24.503906 33.453125 -28.050781 24.503906 -31.597656 C 17.652344 -34.421875 9.351562 -37.484375 9.351562 -45.0625 C 9.351562 -51.914062 14.914062 -55.703125 21.441406 -55.703125 C 30.632812 -55.703125 36.273438 -50.703125 39.257812 -43.691406 L 40.0625 -43.933594 L 39.742188 -53.285156 C 36.597656 -54.976562 31.355469 -56.992188 24.023438 -56.992188 C 12.171875 -56.992188 4.351562 -51.027344 4.351562 -41.59375 C 4.351562 -33.050781 10.398438 -29.664062 19.910156 -25.875 C 26.683594 -23.136719 36.597656 -19.425781 36.597656 -11.367188 C 36.597656 -4.835938 31.035156 -0.644531 24.585938 -0.644531 C 13.382812 -0.644531 7.253906 -7.820312 4.109375 -16.285156 L 3.222656 -16.121094 L 3.628906 -4.917969 C 7.417969 -2.175781 14.511719 0.804688 22.972656 0.804688 Z M 22.972656 0.804688 "/></g></g></g><g fill="#000000" fill-opacity="1"><g transform="translate(168.777649, 230.21105)"><g><path d="M 4.109375 0 L 20.554688 0 C 40.144531 0 46.914062 -9.511719 46.753906 -18.539062 C 46.671875 -26.441406 40.871094 -32.96875 27.730469 -33.613281 C 36.917969 -35.308594 40.464844 -40.304688 40.464844 -45.785156 C 40.464844 -52.316406 35.386719 -56.425781 22.972656 -56.425781 L 4.109375 -56.425781 L 4.109375 -55.378906 C 6.53125 -54.652344 7.335938 -52.800781 7.335938 -46.191406 L 7.335938 -10.238281 C 7.335938 -3.628906 6.53125 -1.773438 4.109375 -1.046875 Z M 13.945312 -8.222656 L 13.945312 -32.566406 L 22.167969 -32.566406 C 34.257812 -32.566406 39.417969 -25.796875 39.417969 -16.523438 C 39.417969 -7.578125 34.421875 -1.210938 21.28125 -1.210938 L 18.136719 -1.210938 C 14.671875 -1.210938 13.945312 -2.417969 13.945312 -8.222656 Z M 13.945312 -33.777344 L 13.945312 -55.21875 L 20.070312 -55.21875 C 28.375 -55.21875 33.128906 -51.027344 33.128906 -44.335938 C 33.128906 -38.449219 29.421875 -33.777344 21.441406 -33.777344 Z M 13.945312 -33.777344 "/></g></g></g><g fill="#000000" fill-opacity="1"><g transform="translate(254.357017, 120.851606)"><g><path d="M 3.121094 4.199219 C 4.523438 5.953125 6.839844 6.578125 8.4375 5.300781 C 9.945312 4.09375 9.578125 2.335938 8.914062 0.0625 C 8.402344 -1.699219 7.785156 -3.679688 9.195312 -4.804688 C 10.53125 -5.875 12.054688 -5.324219 13 -4.144531 C 14.527344 -2.234375 14.15625 -0.664062 13.542969 0.605469 L 13.664062 0.695312 L 15.070312 -0.523438 C 15.011719 -1.066406 14.777344 -2.363281 13.511719 -3.945312 C 11.949219 -5.902344 9.859375 -6.421875 8.277344 -5.15625 C 6.910156 -4.0625 6.917969 -2.609375 7.710938 -0.0585938 C 8.230469 1.625 8.875 3.816406 7.410156 4.992188 C 6.257812 5.910156 4.542969 5.535156 3.5 4.226562 C 1.808594 2.113281 2.375 0.199219 3.363281 -1.394531 L 3.234375 -1.527344 L 1.476562 0.046875 C 1.527344 0.996094 1.890625 2.660156 3.121094 4.199219 Z M 3.121094 4.199219 "/></g></g></g><g fill="#000000" fill-opacity="1"><g transform="translate(262.706726, 131.432275)"><g><path d="M 3.449219 6.574219 C 4.953125 9.277344 8.304688 11.285156 12.34375 9.039062 C 16.285156 6.84375 16.511719 2.863281 15 0.144531 C 13.101562 -3.265625 9.472656 -4.21875 6.0625 -2.320312 C 2.121094 -0.125 1.925781 3.839844 3.449219 6.574219 Z M 7.414062 -1.9375 C 10.070312 -3.414062 12.921875 -2.871094 14.433594 -0.152344 C 16.109375 2.855469 14.3125 6.824219 11.03125 8.652344 C 8.296875 10.175781 5.492188 9.523438 3.988281 6.820312 C 2.304688 3.796875 4.164062 -0.125 7.414062 -1.9375 Z M 7.414062 -1.9375 "/></g></g></g><g fill="#000000" fill-opacity="1"><g transform="translate(271.127052, 147.553476)"><g><path d="M 0.339844 0.953125 L 3.140625 8.8125 L 4.894531 8.304688 L 4.875 8.132812 C 3.578125 8.007812 2.953125 7.566406 2.394531 6.007812 L 1.40625 3.230469 C 1.246094 2.78125 1.402344 2.453125 1.851562 2.292969 L 10.871094 -0.921875 C 12.46875 -1.492188 12.835938 -1.386719 13.128906 -0.945312 L 13.320312 -1.015625 L 12.480469 -3.371094 L 12.289062 -3.304688 C 12.339844 -2.777344 12.121094 -2.460938 10.523438 -1.894531 L 2.789062 0.863281 C 1.195312 1.429688 0.824219 1.328125 0.53125 0.886719 Z M 0.339844 0.953125 "/></g></g></g><g fill="#000000" fill-opacity="1"><g transform="translate(275.417457, 160.188191)"><g><path d="M 10.765625 -0.796875 L 0.894531 5.511719 L 0.957031 5.835938 L 12.441406 7.84375 C 14.109375 8.132812 14.464844 8.515625 14.683594 8.941406 L 14.878906 8.902344 L 14.496094 6.933594 L 14.296875 6.972656 C 14.292969 7.628906 13.628906 7.777344 12.386719 7.570312 L 2.246094 5.808594 L 10.96875 0.25 C 12.386719 -0.648438 12.65625 -0.71875 12.882812 -0.238281 L 13.082031 -0.277344 L 12.632812 -2.554688 L 12.433594 -2.515625 C 12.378906 -2.128906 12.183594 -1.695312 10.765625 -0.796875 Z M 10.765625 -0.796875 "/></g></g></g><g fill="#000000" fill-opacity="1"><g transform="translate(277.999259, 174.847991)"><g><path d="M 0.0429688 1.011719 L 0.402344 9.824219 L 2.597656 9.898438 L 2.625 9.734375 C 1.058594 9.1875 0.574219 8.230469 0.507812 6.578125 L 0.382812 3.503906 C 0.363281 3.027344 0.609375 2.757812 1.089844 2.738281 L 6.847656 2.503906 L 6.96875 5.519531 C 7.046875 7.433594 6.640625 7.855469 5.964844 8.03125 L 5.976562 8.234375 L 8.421875 8.132812 L 8.414062 7.929688 C 7.726562 7.8125 7.285156 7.425781 7.207031 5.511719 L 7.085938 2.492188 L 12.753906 2.261719 L 12.886719 5.574219 C 12.953125 7.230469 12.445312 8.265625 11.03125 8.894531 L 11.074219 9.058594 L 13.257812 8.746094 L 12.917969 0.488281 L 12.71875 0.496094 C 12.609375 1.015625 12.304688 1.25 10.613281 1.316406 L 2.40625 1.652344 C 0.714844 1.722656 0.394531 1.511719 0.242188 1.003906 Z M 0.0429688 1.011719 "/></g></g></g><g fill="#000000" fill-opacity="1"><g transform="translate(278.18147, 189.174116)"><g/></g></g><g fill="#000000" fill-opacity="1"><g transform="translate(277.596575, 196.809959)"><g><path d="M -0.191406 0.996094 L -0.859375 4.429688 C -1.695312 8.75 0.164062 10.570312 2.105469 10.910156 C 3.84375 11.230469 5.605469 10.464844 6.367188 7.59375 C 6.375 9.488281 7.339844 10.519531 8.566406 10.757812 C 10.03125 11.042969 11.1875 10.007812 11.6875 7.425781 L 12.460938 3.449219 L 12.261719 3.410156 C 12.035156 3.890625 11.6875 4.046875 10.023438 3.726562 L 1.960938 2.164062 C 0.300781 1.839844 0.0351562 1.5625 0.0078125 1.03125 Z M 1.296875 3.082031 L 6.792969 4.148438 L 6.320312 6.589844 C 5.789062 9.320312 4.074219 10.128906 2.085938 9.746094 C -0.0117188 9.339844 -1.28125 7.964844 -0.636719 4.640625 L -0.457031 3.71875 C -0.308594 2.941406 -0.00390625 2.832031 1.296875 3.082031 Z M 7.027344 4.195312 L 11.890625 5.136719 L 11.488281 7.199219 C 11.121094 9.097656 9.976562 9.867188 8.550781 9.589844 C 7.175781 9.324219 6.238281 8.261719 6.683594 5.964844 Z M 7.027344 4.195312 "/></g></g></g><g fill="#000000" fill-opacity="1"><g transform="translate(274.624226, 210.818184)"><g><path d="M -3.625 9.75 C -3.761719 10.132812 -3.816406 10.503906 -3.808594 10.644531 L -3.636719 10.707031 C -3.613281 10.597656 -3.601562 10.503906 -3.5625 10.398438 C -3.367188 9.84375 -2.421875 9.613281 -0.324219 9.542969 C 1.890625 9.476562 3.324219 9.675781 4.484375 7.472656 C 3.914062 9.769531 4.726562 11.488281 6.394531 12.085938 C 8.074219 12.6875 9.5 11.710938 10.652344 8.484375 L 11.792969 5.296875 L 11.605469 5.226562 C 11.308594 5.667969 10.9375 5.773438 9.34375 5.199219 L 1.613281 2.433594 C 0.015625 1.863281 -0.203125 1.550781 -0.152344 1.023438 L -0.339844 0.953125 L -1.183594 3.3125 L -0.992188 3.378906 C -0.699219 2.9375 -0.328125 2.835938 1.265625 3.40625 L 5.375 4.875 L 4.945312 6.070312 C 3.984375 8.757812 2.296875 8.390625 -0.285156 8.5625 C -2.089844 8.679688 -3.179688 8.503906 -3.625 9.75 Z M 5.617188 4.960938 L 10.9375 6.867188 C 10.84375 7.183594 10.761719 7.46875 10.664062 7.746094 C 9.585938 10.761719 8.09375 11.480469 6.394531 10.875 C 4.765625 10.289062 4.238281 8.8125 4.960938 6.800781 Z M 5.617188 4.960938 "/></g></g></g><g fill="#000000" fill-opacity="1"><g transform="translate(269.615329, 224.429265)"><g><path d="M -3.816406 6.367188 C -5.34375 9.058594 -5.3125 12.964844 -1.292969 15.246094 C 2.632812 17.46875 6.152344 15.589844 7.683594 12.882812 C 9.609375 9.484375 8.535156 5.894531 5.136719 3.96875 C 1.210938 1.746094 -2.273438 3.640625 -3.816406 6.367188 Z M 5.511719 5.324219 C 8.15625 6.820312 9.175781 9.539062 7.644531 12.246094 C 5.945312 15.242188 1.621094 15.773438 -1.644531 13.921875 C -4.367188 12.378906 -5.273438 9.644531 -3.75 6.953125 C -2.042969 3.941406 2.277344 3.492188 5.511719 5.324219 Z M 5.511719 5.324219 "/></g></g></g><g fill="#000000" fill-opacity="1"><g transform="translate(260.247734, 240.00973)"><g><path d="M -2.453125 3.011719 L -4.042969 4.96875 L -3.886719 5.097656 C -3.460938 4.78125 -3.078125 4.804688 -1.765625 5.875 L 6.230469 12.382812 L 5.453125 13.339844 C 4.40625 14.625 3.667969 14.832031 2.40625 14.515625 L 2.332031 14.667969 L 3.816406 15.734375 L 9.707031 8.492188 L 8.363281 7.253906 L 8.230469 7.359375 C 8.792969 8.53125 8.742188 9.296875 7.695312 10.582031 L 6.894531 11.570312 L -1.101562 5.0625 C -2.417969 3.992188 -2.519531 3.621094 -2.296875 3.140625 Z M -2.453125 3.011719 "/></g></g></g><g fill="#000000" fill-opacity="1"><g transform="translate(251.475613, 250.54057)"><g><path d="M -0.753906 0.675781 L -2.625 2.339844 L -2.488281 2.492188 C -2.019531 2.246094 -1.644531 2.332031 -0.519531 3.59375 L 2.386719 6.851562 L -3.332031 11.949219 L -6.234375 8.691406 C -7.363281 7.429688 -7.40625 7.046875 -7.109375 6.609375 L -7.242188 6.457031 L -9.113281 8.125 L -8.976562 8.277344 C -8.507812 8.027344 -8.132812 8.113281 -7.003906 9.378906 L -1.539062 15.507812 C -0.414062 16.773438 -0.371094 17.152344 -0.667969 17.59375 L -0.535156 17.746094 L 1.335938 16.078125 L 1.199219 15.925781 C 0.730469 16.171875 0.355469 16.085938 -0.769531 14.824219 L -3.160156 12.144531 L 2.558594 7.046875 L 4.945312 9.726562 C 6.074219 10.988281 6.117188 11.371094 5.816406 11.808594 L 5.953125 11.960938 L 7.820312 10.292969 L 7.6875 10.144531 C 7.214844 10.390625 6.84375 10.304688 5.714844 9.039062 L 0.25 2.910156 C -0.875 1.644531 -0.921875 1.265625 -0.621094 0.824219 Z M -0.753906 0.675781 "/></g></g></g><g fill="#000000" fill-opacity="1"><g transform="translate(238.832643, 261.31149)"><g><path d="M -0.855469 0.542969 L -8.296875 5.277344 L -7.261719 7.214844 L -7.101562 7.15625 C -7.417969 5.523438 -6.832031 4.628906 -5.433594 3.738281 L -2.839844 2.089844 C -2.433594 1.832031 -2.078125 1.910156 -1.824219 2.316406 L 1.269531 7.179688 L -1.277344 8.800781 C -2.894531 9.828125 -3.464844 9.6875 -3.953125 9.191406 L -4.125 9.300781 L -2.808594 11.367188 L -2.640625 11.257812 C -2.878906 10.601562 -2.765625 10.027344 -1.148438 9 L 1.398438 7.378906 L 4.441406 12.164062 L 1.644531 13.945312 C 0.246094 14.832031 -0.90625 14.910156 -2.15625 14.003906 L -2.277344 14.125 L -0.914062 15.855469 L 6.0625 11.417969 L 5.953125 11.25 C 5.449219 11.417969 5.09375 11.269531 4.183594 9.839844 L -0.222656 2.910156 C -1.128906 1.480469 -1.113281 1.101562 -0.746094 0.714844 Z M -0.855469 0.542969 "/></g></g></g><g fill="#000000" fill-opacity="1"><g transform="translate(226.741774, 268.711736)"><g><path d="M -9.570312 4.078125 C -9.941406 4.242188 -10.25 4.457031 -10.34375 4.558594 L -10.269531 4.726562 C -10.175781 4.664062 -10.101562 4.613281 -10 4.566406 C -9.460938 4.328125 -8.644531 4.855469 -7.148438 6.328125 C -5.578125 7.890625 -4.734375 9.070312 -2.335938 8.394531 C -4.398438 9.5625 -5.085938 11.335938 -4.371094 12.953125 C -3.652344 14.585938 -1.964844 14.949219 1.171875 13.570312 L 4.269531 12.203125 L 4.1875 12.015625 C 3.664062 12.105469 3.335938 11.910156 2.652344 10.359375 L -0.65625 2.84375 C -1.339844 1.296875 -1.265625 0.917969 -0.84375 0.59375 L -0.925781 0.410156 L -3.21875 1.417969 L -3.136719 1.601562 C -2.613281 1.511719 -2.285156 1.710938 -1.601562 3.261719 L 0.160156 7.253906 L -1.003906 7.765625 C -3.617188 8.917969 -4.507812 7.441406 -6.410156 5.683594 C -7.734375 4.453125 -8.359375 3.542969 -9.570312 4.078125 Z M 0.261719 7.488281 L 2.542969 12.664062 C 2.246094 12.8125 1.984375 12.949219 1.714844 13.066406 C -1.21875 14.359375 -2.761719 13.773438 -3.492188 12.121094 C -4.1875 10.539062 -3.476562 9.136719 -1.523438 8.277344 Z M 0.261719 7.488281 "/></g></g></g><g fill="#000000" fill-opacity="1"><g transform="translate(213.270584, 274.323644)"><g><path d="M -5.09375 1.203125 C -7.257812 1.792969 -8.75 3.671875 -8.210938 5.644531 C -7.699219 7.507812 -5.941406 7.867188 -3.589844 8.160156 C -1.773438 8.386719 0.292969 8.605469 0.769531 10.347656 C 1.21875 11.996094 0.109375 13.179688 -1.34375 13.578125 C -3.707031 14.222656 -5 13.261719 -5.921875 12.195312 L -6.054688 12.269531 L -5.492188 14.042969 C -4.972656 14.207031 -3.6875 14.503906 -1.734375 13.96875 C 0.679688 13.308594 1.988281 11.597656 1.453125 9.644531 C 0.992188 7.957031 -0.347656 7.386719 -3 7.101562 C -4.753906 6.910156 -7.023438 6.636719 -7.519531 4.824219 C -7.90625 3.402344 -6.882812 1.976562 -5.269531 1.535156 C -2.65625 0.820312 -1.125 2.101562 -0.0546875 3.640625 L 0.117188 3.574219 L -0.628906 1.335938 C -1.519531 1.007812 -3.191406 0.683594 -5.09375 1.203125 Z M -5.09375 1.203125 "/></g></g></g></svg>