<?xml version="1.0" encoding="UTF-8" standalone="no"?>
<svg
   version="1.0"
   width="100.000000pt"
   height="100.000000pt"
   viewBox="0 0 100.000000 100.000000"
   preserveAspectRatio="xMidYMid meet"
   id="svg16"
   sodipodi:docname="title.svg"
   inkscape:version="1.2.2 (732a01da63, 2022-12-09)"
   xmlns:inkscape="http://www.inkscape.org/namespaces/inkscape"
   xmlns:sodipodi="http://sodipodi.sourceforge.net/DTD/sodipodi-0.dtd"
   xmlns="http://www.w3.org/2000/svg"
   xmlns:svg="http://www.w3.org/2000/svg">
  <defs
     id="defs20" />
  <sodipodi:namedview
     id="namedview18"
     pagecolor="#ffffff"
     bordercolor="#000000"
     borderopacity="0.25"
     inkscape:showpageshadow="2"
     inkscape:pageopacity="0.0"
     inkscape:pagecheckerboard="0"
     inkscape:deskcolor="#d1d1d1"
     inkscape:document-units="pt"
     showgrid="false"
     inkscape:zoom="6.2175"
     inkscape:cx="66.586248"
     inkscape:cy="66.747085"
     inkscape:window-width="1920"
     inkscape:window-height="1009"
     inkscape:window-x="1912"
     inkscape:window-y="-8"
     inkscape:window-maximized="1"
     inkscape:current-layer="svg16" />
  <g
     transform="translate(0.000000,100.000000) scale(0.100000,-0.100000)"
     fill="#000000"
     stroke="none"
     id="g14"
     style="fill:#000080">
    <path
       d="M353 922 c-66 -36 -96 -107 -74 -173 6 -19 39 -63 72 -99 56 -60 109 -146 109 -178 0 -8 -13 -27 -29 -43 -34 -34 -74 -38 -128 -12 -44 21 -69 60 -77 124 -5 40 -10 49 -26 49 -54 0 -65 -110 -17 -173 37 -49 120 -90 184 -91 29 -1 53 -2 53 -4 0 -2 -20 -35 -46 -74 -44 -68 -51 -97 -27 -105 19 -7 79 54 124 125 24 37 66 119 94 182 50 112 53 115 86 118 46 3 101 -26 112 -61 17 -52 -46 -110 -133 -123 -88 -13 -104 -36 -37 -55 60 -17 107 -64 107 -106 0 -73 -70 -97 -188 -65 -91 25 -109 17 -61 -28 35 -31 139 -70 188 -70 43 1 109 36 131 72 34 53 23 113 -28 159 l-41 35 35 13 c49 18 100 70 112 115 25 88 -54 169 -165 171 -48 0 -53 2 -53 23 0 37 -93 59 -119 28 -9 -11 -6 -18 14 -33 22 -15 25 -24 20 -46 -9 -35 -19 -34 -44 6 -11 17 -43 55 -71 82 -53 51 -80 92 -80 120 0 27 38 55 74 55 53 0 82 -15 136 -71 27 -28 54 -48 60 -44 5 3 10 22 10 41 0 26 -9 45 -41 78 -64 70 -167 95 -236 58z"
       id="path12"
       style="fill:#000080" />
  </g>
  <path
     style="fill:#000080;stroke-width:0.160836"
     d="m 83.152392,125.12615 c -6.313108,-0.87296 -15.915208,-4.41496 -20.989143,-7.74242 -2.285518,-1.49884 -5.388018,-4.86751 -5.388018,-5.85028 0,-0.5986 0.563653,-0.93814 1.674778,-1.00889 1.492103,-0.095 3.965471,0.34729 8.902988,1.59209 4.745263,1.19633 7.106401,1.65672 9.812816,1.91336 6.839308,0.64857 11.860468,-0.78222 14.359113,-4.09165 1.494995,-1.98011 2.228415,-5.35736 1.710197,-7.87512 -1.108831,-5.387246 -6.578425,-10.270651 -14.264476,-12.735716 -4.432448,-1.421571 -6.02536,-2.644918 -5.022559,-3.857295 1.037186,-1.253944 3.830029,-2.180698 9.618394,-3.191686 3.734856,-0.652325 5.887926,-1.258324 8.308876,-2.338599 5.285142,-2.358336 9.036302,-6.033983 10.016932,-9.815296 0.36125,-1.392978 0.26125,-3.596127 -0.21901,-4.82509 -1.30785,-3.346707 -5.950259,-6.527516 -10.947495,-7.500817 -1.626002,-0.316695 -4.643319,-0.304872 -5.884611,0.02306 -0.53076,0.140217 -1.249502,0.450642 -1.597206,0.689833 -1.385132,0.952854 -3.084454,3.906496 -6.126123,10.648 -9.039761,20.035566 -14.045943,29.003251 -20.561089,36.831516 -1.813576,2.17911 -5.01977,5.41259 -6.456233,6.51119 -2.183154,1.66966 -3.314011,2.0232 -4.384261,1.37066 -1.259167,-0.76772 -1.461008,-2.04415 -0.688059,-4.35125 0.875204,-2.61231 2.184067,-4.96431 6.305679,-11.331155 2.588781,-3.999017 4.798004,-7.592289 4.798004,-7.803892 0,-0.209922 -0.938128,-0.30875 -4.503418,-0.474418 -5.794311,-0.269243 -7.143796,-0.466232 -10.615199,-1.54954 -8.606804,-2.685892 -15.879061,-8.206242 -18.55977,-14.088669 -1.40096,-3.074204 -1.937133,-5.627515 -1.935232,-9.215769 0.0016,-3.094839 0.300413,-4.720605 1.222636,-6.65295 0.574473,-1.2037 1.84796,-2.639796 2.748121,-3.099024 0.880135,-0.449012 2.106934,-0.646591 2.905368,-0.467916 1.412774,0.316149 1.935583,1.521455 2.601233,5.996997 0.657502,4.420762 1.288303,6.712511 2.534715,9.20882 2.211666,4.429517 5.436576,7.098974 10.854266,8.984748 5.065964,1.763347 9.167534,1.234903 12.788862,-1.647711 2.000666,-1.59255 3.951233,-3.92817 4.825546,-5.778142 0.416536,-0.881351 0.465002,-1.124082 0.369319,-1.849618 -0.424973,-3.22242 -3.907503,-9.701747 -8.623616,-16.044443 -1.845402,-2.481879 -3.067615,-3.967416 -5.549277,-6.744854 -2.703937,-3.026207 -4.363509,-5.024114 -6.060777,-7.29638 -2.716466,-3.636748 -3.627128,-5.268788 -4.26799,-7.648862 -0.371345,-1.379128 -0.414792,-1.835298 -0.414792,-4.35512 0,-2.535722 0.04205,-2.971038 0.424389,-4.392952 0.893121,-3.321537 2.382147,-5.981446 4.750038,-8.48518 2.576938,-2.724776 5.354393,-4.540269 8.447693,-5.5218619 2.659334,-0.8438838 3.557581,-0.9713695 6.781648,-0.9625019 2.489564,0.00685 3.177959,0.067331 4.914895,0.4318289 4.779772,1.0030406 9.125618,3.0416399 13.098776,6.1445239 1.66112,1.297271 5.238756,4.967638 6.499381,6.667843 1.098019,1.480898 1.96001,3.179368 2.28884,4.509937 0.650242,2.631126 -0.160312,7.694192 -1.256774,7.85034 -0.963287,0.137182 -3.491953,-1.80074 -7.600124,-5.824594 -3.895331,-3.815381 -5.339506,-5.073071 -7.415803,-6.458211 -3.195392,-2.131711 -6.094234,-2.966593 -10.287936,-2.962983 -2.486146,0.0021 -3.626768,0.253902 -5.629272,1.242513 -1.208345,0.596544 -1.782969,1.007751 -2.747162,1.965894 -1.447317,1.438239 -1.959079,2.398021 -2.052314,3.849012 -0.09045,1.407642 0.187815,2.54217 1.092515,4.454333 1.547421,3.270605 3.644185,5.926447 8.940193,11.323985 5.304294,5.405983 8.111226,8.654709 10.213873,11.821472 1.909543,2.875931 2.81983,3.779654 3.807105,3.779654 0.813468,0 1.457848,-1.07766 1.994996,-3.336428 0.695767,-2.925779 0.267755,-3.980375 -2.484066,-6.120598 -1.784923,-1.388222 -2.681505,-2.391204 -2.681505,-2.999728 0,-0.974218 1.51908,-2.356665 3.216727,-2.927396 1.342673,-0.451393 4.908609,-0.413291 6.755126,0.07218 2.735428,0.719175 5.302533,2.322353 6.058004,3.783273 0.138159,0.267169 0.299725,1.050461 0.359038,1.740648 0.127055,1.478455 0.458788,2.039727 1.398883,2.366831 0.401154,0.13958 1.980548,0.269026 4.372604,0.358376 4.007811,0.149703 5.975215,0.395643 8.385347,1.048226 6.422054,1.738883 11.611544,5.771849 14.008334,10.886463 1.1263,2.403461 1.365,3.537726 1.36099,6.467119 -0.003,2.176955 -0.0606,2.783982 -0.37427,3.94049 -0.81805,3.01655 -2.71524,6.162548 -5.41595,8.980952 -3.61166,3.769068 -6.16554,5.412291 -11.536172,7.422641 -1.481705,0.554635 -2.694009,1.054482 -2.694009,1.110768 0,0.05629 1.25466,1.166308 2.788132,2.466712 1.533473,1.300404 3.33355,2.935252 4.000169,3.632997 2.17049,2.271826 3.75242,4.99887 4.4951,7.74902 0.51369,1.90215 0.51612,5.27414 0.005,7.13376 -0.3943,1.43504 -1.51189,3.88693 -2.29639,5.03804 -0.77784,1.14135 -2.47185,2.85906 -3.8454,3.8992 -5.023503,3.8041 -11.140999,5.9102 -15.44029,5.3157 z"
     id="path354"
     transform="scale(0.75)" />
  <path
     style="fill:#000080;stroke-width:0.160836"
     d="m 83.152392,125.12615 c -5.124371,-0.70858 -12.065716,-3.0137 -17.691998,-5.87525 -2.905084,-1.47754 -4.38079,-2.49799 -6.132211,-4.24042 -3.070567,-3.05482 -3.320281,-4.33042 -0.878174,-4.48592 1.476296,-0.094 3.986501,0.3485 8.559223,1.50883 4.50377,1.14284 7.477137,1.72778 10.099522,1.98685 8.808004,0.87016 14.490255,-1.73794 15.916028,-7.30532 1.092612,-4.26645 -0.195862,-7.98236 -4.057192,-11.700797 -2.626128,-2.528944 -5.619757,-4.226823 -9.996943,-5.669909 -4.478874,-1.476611 -6.021405,-2.666392 -5.022559,-3.873985 1.015055,-1.227189 3.897287,-2.202401 9.222776,-3.120558 4.40567,-0.759572 6.599742,-1.399183 9.390455,-2.737484 4.916018,-2.357504 8.367591,-5.869126 9.332471,-9.494831 0.30464,-1.144722 0.30003,-2.899421 -0.0108,-4.100452 -0.93518,-3.613834 -5.589794,-7.062617 -11.043911,-8.182863 -1.596764,-0.327966 -4.733372,-0.335994 -5.964737,-0.01526 -2.632532,0.685688 -3.853914,2.587376 -8.884926,13.833815 -5.012777,11.205676 -10.470384,21.719968 -14.081935,27.1294 -4.708669,7.052704 -10.353033,13.221914 -13.72077,14.996604 -1.342839,0.70763 -2.582841,0.42816 -3.325072,-0.74939 -0.271597,-0.43089 -0.317547,-0.71026 -0.25816,-1.56962 0.169353,-2.45063 1.706511,-5.50328 6.519614,-12.947323 3.476817,-5.377322 5.032965,-8.001531 4.852124,-8.182373 -0.167459,-0.167459 -2.064908,-0.32666 -6.839742,-0.573873 C 45.587169,89.57231 43.766357,89.260368 40.937189,88.351488 32.51199,85.644862 25.477825,80.401785 22.633596,74.708487 22.015578,73.471398 21.292921,71.30565 20.883001,69.462086 c -0.309083,-1.390064 -0.370567,-2.127291 -0.367272,-4.40378 0.0045,-3.094573 0.304536,-4.72399 1.225144,-6.65295 0.574473,-1.2037 1.84796,-2.639796 2.748121,-3.099024 0.880135,-0.449012 2.106934,-0.646591 2.905368,-0.467916 1.435983,0.321343 1.912964,1.466179 2.681581,6.436254 0.671657,4.343102 1.270711,6.427323 2.61203,9.087729 1.815712,3.601331 4.678162,6.176782 8.834678,7.948883 5.538131,2.361144 9.798397,2.301011 13.622278,-0.192281 2.17704,-1.4195 5.094353,-4.701176 5.952466,-6.695913 0.299106,-0.695291 0.346136,-1.006278 0.25392,-1.679027 C 60.99172,67.120463 58.811813,62.632901 55.44217,57.579413 52.793465,53.607125 50.680614,50.891704 47.147344,46.918961 44.35737,43.781967 42.867775,41.984682 41.119624,39.64616 38.41849,36.03282 37.50395,34.391571 36.869586,32.018972 36.503049,30.648079 36.4573,30.168627 36.454012,27.663852 c -0.0033,-2.544576 0.0371,-2.966073 0.421478,-4.392952 0.894353,-3.32002 2.383733,-5.982266 4.74151,-8.475392 3.172287,-3.35439 6.710696,-5.3708768 10.885708,-6.2036016 1.706934,-0.3404553 5.075492,-0.458924 6.845905,-0.2407633 5.743585,0.7077581 11.383953,3.1180369 15.84238,6.7698689 1.606773,1.316085 5.030207,4.876905 6.181234,6.429295 1.095574,1.477601 1.957526,3.17736 2.284588,4.505182 0.120916,0.490891 0.213503,1.672017 0.208031,2.653799 -0.01581,2.835928 -0.711464,5.227182 -1.520679,5.227182 -1.042338,0 -3.531237,-1.931727 -7.541291,-5.853075 -5.748824,-5.621656 -8.108903,-7.354415 -11.671027,-8.568813 -2.486278,-0.847621 -6.89651,-1.137098 -9.08056,-0.596026 -3.080116,0.763062 -5.8348,2.795647 -6.94772,5.126478 -1.028142,2.153277 -0.328251,4.986997 2.184844,8.845999 1.422151,2.183793 3.682968,4.796045 7.716209,8.915659 5.211611,5.323217 8.013778,8.589697 10.14522,11.826257 1.68035,2.551587 2.613322,3.460894 3.553014,3.462895 0.818849,0.0017 1.410482,-0.958403 1.97556,-3.20608 0.768262,-3.055882 0.376225,-4.042681 -2.497226,-6.28577 -1.740341,-1.358555 -2.629923,-2.361088 -2.629923,-2.963844 0,-0.944456 1.493814,-2.337458 3.136308,-2.924652 1.224953,-0.437922 5.164195,-0.39517 6.915963,0.07506 2.639056,0.708401 5.229708,2.331416 5.952528,3.729193 0.145616,0.281593 0.323176,1.091468 0.394575,1.799724 0.238683,2.367628 0.538226,2.508289 5.77705,2.712809 4.033483,0.157465 5.970451,0.400474 8.369305,1.050005 6.430584,1.741189 11.608364,5.765062 14.008334,10.886463 1.1263,2.403461 1.365,3.537726 1.36099,6.467119 -0.003,2.176955 -0.0606,2.783982 -0.37427,3.94049 -0.83201,3.068039 -2.72421,6.179074 -5.53923,9.107299 -3.53824,3.680516 -6.06086,5.292897 -11.418628,7.298449 -1.484859,0.55582 -2.679069,1.062493 -2.6538,1.12594 0.02527,0.06345 1.348719,1.234707 2.940999,2.602803 4.391379,3.773094 5.926979,5.56754 7.334209,8.570498 1.05587,2.25317 1.32189,3.50016 1.32189,6.19649 0,1.88504 -0.0661,2.57431 -0.34506,3.59537 -0.43481,1.59185 -1.57754,4.01741 -2.50501,5.31713 -3.149935,4.41425 -11.097342,8.71113 -16.659877,9.00742 -0.753343,0.0401 -1.840161,0.008 -2.415151,-0.0716 z"
     id="path356"
     transform="scale(0.75)" />
</svg>
